<?xml version="1.0" encoding="UTF-8"?>
<svg xmlns="http://www.w3.org/2000/svg" version="1.1" width="100" height="100" viewBox="0 0 100 100"><rect x="0" y="0" width="100" height="100" fill="#ffffff"/><g transform="scale(4.762)"><g transform="translate(0,0)"><path fill-rule="evenodd" d="M8 0L8 4L12 4L12 5L11 5L11 6L10 6L10 5L8 5L8 7L9 7L9 9L7 9L7 8L4 8L4 9L5 9L5 10L3 10L3 9L2 9L2 8L0 8L0 9L1 9L1 10L0 10L0 12L1 12L1 11L2 11L2 13L3 13L3 11L4 11L4 13L8 13L8 14L9 14L9 15L8 15L8 17L9 17L9 19L8 19L8 21L9 21L9 20L10 20L10 21L11 21L11 20L10 20L10 17L9 17L9 15L10 15L10 16L11 16L11 19L12 19L12 18L13 18L13 17L12 17L12 16L13 16L13 15L14 15L14 14L15 14L15 11L16 11L16 12L17 12L17 16L16 16L16 15L15 15L15 16L14 16L14 17L15 17L15 18L14 18L14 19L13 19L13 20L12 20L12 21L15 21L15 19L16 19L16 20L17 20L17 19L18 19L18 21L21 21L21 19L20 19L20 20L19 20L19 18L21 18L21 15L20 15L20 14L21 14L21 10L20 10L20 9L21 9L21 8L17 8L17 9L18 9L18 10L16 10L16 8L15 8L15 10L14 10L14 11L13 11L13 12L12 12L12 15L11 15L11 14L10 14L10 13L8 13L8 12L10 12L10 11L9 11L9 9L10 9L10 8L11 8L11 11L12 11L12 10L13 10L13 9L12 9L12 8L13 8L13 6L12 6L12 5L13 5L13 4L12 4L12 3L9 3L9 1L10 1L10 2L11 2L11 1L12 1L12 2L13 2L13 0ZM9 6L9 7L10 7L10 6ZM11 6L11 7L12 7L12 6ZM6 9L6 10L5 10L5 12L7 12L7 11L8 11L8 10L7 10L7 9ZM6 10L6 11L7 11L7 10ZM18 10L18 11L17 11L17 12L19 12L19 13L18 13L18 16L17 16L17 17L16 17L16 18L17 18L17 17L18 17L18 18L19 18L19 17L18 17L18 16L20 16L20 15L19 15L19 13L20 13L20 12L19 12L19 11L20 11L20 10ZM0 0L0 7L7 7L7 0ZM1 1L1 6L6 6L6 1ZM2 2L2 5L5 5L5 2ZM14 0L14 7L21 7L21 0ZM15 1L15 6L20 6L20 1ZM16 2L16 5L19 5L19 2ZM0 14L0 21L7 21L7 14ZM1 15L1 20L6 20L6 15ZM2 16L2 19L5 19L5 16Z" fill="#000000"/></g></g></svg>
