<?xml version="1.0" encoding="UTF-8"?>
<svg xmlns="http://www.w3.org/2000/svg" version="1.1" width="100" height="100" viewBox="0 0 100 100"><rect x="0" y="0" width="100" height="100" fill="#ffffff"/><g transform="scale(4.762)"><g transform="translate(0,0)"><path fill-rule="evenodd" d="M9 0L9 1L8 1L8 3L9 3L9 4L8 4L8 8L6 8L6 9L7 9L7 10L4 10L4 12L3 12L3 9L4 9L4 8L3 8L3 9L2 9L2 8L0 8L0 10L1 10L1 9L2 9L2 11L1 11L1 12L0 12L0 13L2 13L2 12L3 12L3 13L5 13L5 12L6 12L6 13L8 13L8 15L10 15L10 16L9 16L9 17L8 17L8 18L9 18L9 19L8 19L8 21L9 21L9 20L10 20L10 19L11 19L11 18L12 18L12 19L13 19L13 20L11 20L11 21L13 21L13 20L15 20L15 19L13 19L13 18L12 18L12 16L14 16L14 17L17 17L17 18L16 18L16 21L19 21L19 19L18 19L18 20L17 20L17 18L20 18L20 20L21 20L21 16L18 16L18 15L21 15L21 14L18 14L18 13L21 13L21 12L19 12L19 11L20 11L20 10L21 10L21 9L20 9L20 8L18 8L18 9L17 9L17 8L14 8L14 10L12 10L12 11L11 11L11 12L12 12L12 13L10 13L10 10L11 10L11 8L13 8L13 4L12 4L12 3L13 3L13 2L12 2L12 1L13 1L13 0L11 0L11 2L12 2L12 3L11 3L11 4L12 4L12 5L11 5L11 6L10 6L10 7L9 7L9 4L10 4L10 0ZM11 6L11 7L12 7L12 6ZM8 8L8 11L6 11L6 12L8 12L8 11L9 11L9 8ZM15 9L15 10L14 10L14 11L12 11L12 12L13 12L13 13L12 13L12 14L11 14L11 15L13 15L13 14L14 14L14 16L15 16L15 13L16 13L16 12L17 12L17 13L18 13L18 11L17 11L17 9ZM18 9L18 10L19 10L19 9ZM14 12L14 13L15 13L15 12ZM9 13L9 14L10 14L10 13ZM16 14L16 15L17 15L17 14ZM17 16L17 17L18 17L18 16ZM0 0L0 7L7 7L7 0ZM1 1L1 6L6 6L6 1ZM2 2L2 5L5 5L5 2ZM14 0L14 7L21 7L21 0ZM15 1L15 6L20 6L20 1ZM16 2L16 5L19 5L19 2ZM0 14L0 21L7 21L7 14ZM1 15L1 20L6 20L6 15ZM2 16L2 19L5 19L5 16Z" fill="#000000"/></g></g></svg>
