<?xml version="1.0" encoding="UTF-8"?>
<svg xmlns="http://www.w3.org/2000/svg" version="1.1" width="100" height="100" viewBox="0 0 100 100"><rect x="0" y="0" width="100" height="100" fill="#ffffff"/><g transform="scale(4.762)"><g transform="translate(0,0)"><path fill-rule="evenodd" d="M12 0L12 2L11 2L11 1L10 1L10 4L9 4L9 3L8 3L8 5L9 5L9 6L8 6L8 7L9 7L9 6L10 6L10 7L11 7L11 6L12 6L12 7L13 7L13 6L12 6L12 5L13 5L13 0ZM11 3L11 4L10 4L10 6L11 6L11 5L12 5L12 3ZM0 8L0 9L1 9L1 10L0 10L0 11L2 11L2 12L3 12L3 13L4 13L4 11L8 11L8 8L5 8L5 9L7 9L7 10L4 10L4 9L3 9L3 10L2 10L2 8ZM11 8L11 10L12 10L12 11L11 11L11 12L10 12L10 14L9 14L9 12L6 12L6 13L8 13L8 16L9 16L9 19L8 19L8 21L11 21L11 20L12 20L12 21L13 21L13 20L15 20L15 21L16 21L16 19L17 19L17 20L18 20L18 21L19 21L19 20L18 20L18 17L19 17L19 15L20 15L20 14L19 14L19 13L17 13L17 12L20 12L20 13L21 13L21 10L20 10L20 11L17 11L17 12L16 12L16 10L17 10L17 9L18 9L18 10L19 10L19 9L18 9L18 8L16 8L16 9L15 9L15 10L14 10L14 9L12 9L12 8ZM9 9L9 11L10 11L10 9ZM13 10L13 11L14 11L14 10ZM0 12L0 13L1 13L1 12ZM11 13L11 14L12 14L12 15L9 15L9 16L12 16L12 17L13 17L13 16L14 16L14 17L16 17L16 18L17 18L17 17L18 17L18 15L19 15L19 14L17 14L17 13L13 13L13 14L12 14L12 13ZM13 14L13 15L14 15L14 16L15 16L15 15L14 15L14 14ZM16 14L16 15L17 15L17 14ZM16 16L16 17L17 17L17 16ZM10 17L10 18L11 18L11 17ZM14 18L14 19L15 19L15 18ZM19 18L19 19L20 19L20 20L21 20L21 18ZM9 19L9 20L10 20L10 19ZM0 0L0 7L7 7L7 0ZM1 1L1 6L6 6L6 1ZM2 2L2 5L5 5L5 2ZM14 0L14 7L21 7L21 0ZM15 1L15 6L20 6L20 1ZM16 2L16 5L19 5L19 2ZM0 14L0 21L7 21L7 14ZM1 15L1 20L6 20L6 15ZM2 16L2 19L5 19L5 16Z" fill="#000000"/></g></g></svg>
